<svg width="328" height="162" viewBox="0 0 328 162" fill="none" xmlns="http://www.w3.org/2000/svg">
<path d="M267.135 80.8545L308.394 116.949L317.728 106.036L269.809 63.4912L267.135 80.8545Z" fill="#2C5F93"/>
<path d="M272.452 46.3279L269.809 63.4912L317.728 106.036L327.499 94.6123L272.452 46.3279Z" fill="#2C5F93"/>
<path d="M267.135 80.8551L264.482 98.0724V98.0735L298.728 128.25L308.394 116.95L267.135 80.8551Z" fill="#2C5F93"/>
<path d="M264.483 58.7637L269.809 63.4912L272.453 46.3279L264.483 39.3349V58.7637Z" fill="#3E3E3F"/>
<path d="M264.486 78.5385L267.135 80.8545L269.809 63.4912L264.483 58.7637L264.486 78.5385Z" fill="#3E3E3F"/>
<path d="M264.483 98.0717L267.135 80.8545L264.486 78.5385L264.483 98.0717Z" fill="#3E3E3F"/>
<path d="M236.828 0.0112318V56.6061L250.656 77.3389V0L236.828 0.0112318Z" fill="#FEC44D"/>
<path d="M223 0V35.8722L236.828 56.6061V0.0112318L223 0Z" fill="#FEC44D"/>
<path d="M250.656 77.3389L264.096 97.4921L264.483 98.0728V98.0717V58.7637V39.5203V39.3349V0H250.656V77.3389Z" fill="#FEC44D"/>
<path d="M80.96 128.9C75.98 128.9 71.78 127.955 68.36 126.065C64.97 124.175 62.24 121.67 60.17 118.55C58.1 115.4 56.6 111.92 55.67 108.11C54.77 104.27 54.32 100.4 54.32 96.5C54.32 92.93 54.785 89.24 55.715 85.43C56.645 81.62 58.145 78.095 60.215 74.855C62.315 71.585 65.06 68.945 68.45 66.935C71.87 64.925 76.04 63.92 80.96 63.92C85.01 63.92 88.58 64.67 91.67 66.17C94.79 67.64 97.4 69.56 99.5 71.93C101.63 74.3 103.22 76.79 104.27 79.4L91.58 85.07C90.53 83.48 89.495 82.13 88.475 81.02C87.455 79.91 86.345 79.07 85.145 78.5C83.945 77.9 82.55 77.6 80.96 77.6C78.71 77.6 76.82 78.185 75.29 79.355C73.76 80.495 72.545 82.01 71.645 83.9C70.745 85.79 70.085 87.845 69.665 90.065C69.275 92.255 69.08 94.4 69.08 96.5C69.08 98.66 69.305 100.85 69.755 103.07C70.205 105.26 70.91 107.27 71.87 109.1C72.83 110.93 74.06 112.415 75.56 113.555C77.06 114.665 78.86 115.22 80.96 115.22C83.12 115.22 85.04 114.47 86.72 112.97C88.4 111.44 89.96 109.49 91.4 107.12L104.36 111.98C102.83 115.28 100.985 118.205 98.825 120.755C96.665 123.305 94.115 125.3 91.175 126.74C88.235 128.18 84.83 128.9 80.96 128.9ZM111.926 128L137.036 65H150.626L175.826 128H160.256L155.576 116.03H132.086L127.496 128H111.926ZM136.856 102.89H150.716L145.586 90.29C145.406 89.87 145.196 89.405 144.956 88.895C144.746 88.355 144.536 87.815 144.326 87.275C144.116 86.705 143.936 86.18 143.786 85.7C143.636 86.18 143.456 86.705 143.246 87.275C143.036 87.815 142.811 88.355 142.571 88.895C142.361 89.405 142.166 89.87 141.986 90.29L136.856 102.89ZM188.09 128V65H202.31V114.23H232.46V128H188.09Z" fill="#3E3E3F"/>
<g clip-path="url(#clip0_205_704)">
<path d="M32.44 78.4C36.6926 78.4 40.14 74.9526 40.14 70.7C40.14 66.4474 36.6926 63 32.44 63C28.1874 63 24.74 66.4474 24.74 70.7C24.74 74.9526 28.1874 78.4 32.44 78.4Z" fill="#3E3E3F"/>
<path d="M25.66 82.35V138.34C25.66 141.68 22.95 144.39 19.61 144.39C16.27 144.39 13.56 141.68 13.56 138.34C13.56 136.67 14.24 135.16 15.33 134.06L5.75001 124.48C2.20001 128.03 0.0100098 132.93 0.0100098 138.34C0.0100098 149.17 8.79001 157.94 19.61 157.94C30.43 157.94 38.93 149.42 39.19 138.82H39.21V82.35H25.66Z" fill="#3E3E3F"/>
<path d="M39.27 90.95L5.73999 124.48L15.32 134.06L39.26 110.12L39.27 90.95Z" fill="#3E3E3F"/>
</g>
<defs>
<clipPath id="clip0_205_704">
<rect width="40.14" height="94.94" fill="white" transform="translate(0 63)"/>
</clipPath>
</defs>
</svg>
