<svg width="100" height="50" viewBox="0 0 100 50" fill="none" xmlns="http://www.w3.org/2000/svg">
<path d="M80.9404 24.9563L93.3181 35.7847L96.1185 32.5108L81.7427 19.7473L80.9404 24.9563Z" fill="white"/>
<path d="M82.5357 14.5984L81.7427 19.7474L96.1185 32.5109L99.0498 29.0837L82.5357 14.5984Z" fill="white"/>
<path d="M80.9404 24.9565L80.1447 30.1217V30.1221L90.4184 39.175L93.3181 35.7849L80.9404 24.9565Z" fill="white"/>
<path d="M80.1447 18.3291L81.7428 19.7474L82.5358 14.5984L80.1447 12.5005V18.3291Z" fill="white" fill-opacity="0.5"/>
<path d="M80.1457 24.2615L80.9404 24.9563L81.7428 19.7473L80.1447 18.3291L80.1457 24.2615Z" fill="white" fill-opacity="0.5"/>
<path d="M80.1447 30.1214L80.9404 24.9563L80.1457 24.2615L80.1447 30.1214Z" fill="white" fill-opacity="0.5"/>
<path d="M71.8483 0.703321V17.6818L75.9967 23.9016V0.699951L71.8483 0.703321Z" fill="white"/>
<path d="M67.7 0.699951V11.4616L71.8483 17.6818V0.703321L67.7 0.699951Z" fill="white"/>
<path d="M75.9967 23.9016L80.0287 29.9476L80.1447 30.1218V30.1215V18.3291V12.556V12.5004V0.699951H75.9967V23.9016Z" fill="white"/>
<path d="M25.088 39.3699C23.594 39.3699 22.334 39.0864 21.308 38.5194C20.291 37.9524 19.472 37.2009 18.851 36.2649C18.23 35.3199 17.78 34.2759 17.501 33.1329C17.231 31.9809 17.096 30.8199 17.096 29.6499C17.096 28.5789 17.2355 27.4719 17.5145 26.3289C17.7935 25.1859 18.2435 24.1284 18.8645 23.1564C19.4945 22.1754 20.318 21.3834 21.335 20.7804C22.361 20.1774 23.612 19.8759 25.088 19.8759C26.303 19.8759 27.374 20.1009 28.301 20.5509C29.237 20.9919 30.02 21.5679 30.65 22.2789C31.289 22.9899 31.766 23.7369 32.081 24.5199L28.274 26.2209C27.959 25.7439 27.6485 25.3389 27.3425 25.0059C27.0365 24.6729 26.7035 24.4209 26.3435 24.2499C25.9835 24.0699 25.565 23.9799 25.088 23.9799C24.413 23.9799 23.846 24.1554 23.387 24.5064C22.928 24.8484 22.5635 25.3029 22.2935 25.8699C22.0235 26.4369 21.8255 27.0534 21.6995 27.7194C21.5825 28.3764 21.524 29.0199 21.524 29.6499C21.524 30.2979 21.5915 30.9549 21.7265 31.6209C21.8615 32.2779 22.073 32.8809 22.361 33.4299C22.649 33.9789 23.018 34.4244 23.468 34.7664C23.918 35.0994 24.458 35.2659 25.088 35.2659C25.736 35.2659 26.312 35.0409 26.816 34.5909C27.32 34.1319 27.788 33.5469 28.22 32.8359L32.108 34.2939C31.649 35.2839 31.0955 36.1614 30.4475 36.9264C29.7995 37.6914 29.0345 38.2899 28.1525 38.7219C27.2705 39.1539 26.249 39.3699 25.088 39.3699ZM34.3779 39.0999L41.9109 20.1999H45.9879L53.5479 39.0999H48.8769L47.4729 35.5089H40.4259L39.0489 39.0999H34.3779ZM41.8569 31.5669H46.0149L44.4759 27.7869C44.4219 27.6609 44.3589 27.5214 44.2869 27.3684C44.2239 27.2064 44.1609 27.0444 44.0979 26.8824C44.0349 26.7114 43.9809 26.5539 43.9359 26.4099C43.8909 26.5539 43.8369 26.7114 43.7739 26.8824C43.7109 27.0444 43.6434 27.2064 43.5714 27.3684C43.5084 27.5214 43.4499 27.6609 43.3959 27.7869L41.8569 31.5669ZM57.2269 39.0999V20.1999H61.4929V34.9689H70.5379V39.0999H57.2269Z" fill="white"/>
<g clip-path="url(#clip0_205_645)">
<path d="M10.532 24.2199C11.8078 24.2199 12.842 23.1856 12.842 21.9099C12.842 20.6341 11.8078 19.5999 10.532 19.5999C9.25621 19.5999 8.22198 20.6341 8.22198 21.9099C8.22198 23.1856 9.25621 24.2199 10.532 24.2199Z" fill="white"/>
<path d="M8.49798 25.4048V42.2018C8.49798 43.2038 7.68498 44.0168 6.68298 44.0168C5.68098 44.0168 4.86798 43.2038 4.86798 42.2018C4.86798 41.7008 5.07198 41.2478 5.39898 40.9178L2.52498 38.0438C1.45998 39.1088 0.802979 40.5788 0.802979 42.2018C0.802979 45.4508 3.43698 48.0818 6.68298 48.0818C9.92898 48.0818 12.479 45.5258 12.557 42.3458H12.563V25.4048H8.49798Z" fill="white"/>
<path d="M12.581 27.9849L2.52197 38.0439L5.39597 40.9179L12.578 33.7359L12.581 27.9849Z" fill="white"/>
</g>
<defs>
<clipPath id="clip0_205_645">
<rect width="12.042" height="28.482" fill="white" transform="translate(0.799988 19.5999)"/>
</clipPath>
</defs>
</svg>
